<svg width="600" height="205" viewBox="0 0 600 205" fill="none" xmlns="http://www.w3.org/2000/svg">
<path d="M97.14 140V86.246H109.482L109.686 97.058L107.646 97.874C108.258 96.106 109.176 94.474 110.4 92.978C111.624 91.414 113.086 90.088 114.786 89C116.486 87.844 118.288 86.96 120.192 86.348C122.096 85.668 124.034 85.328 126.006 85.328C128.93 85.328 131.514 85.804 133.758 86.756C136.07 87.64 137.974 89.068 139.47 91.04C141.034 93.012 142.19 95.528 142.938 98.588L141 98.18L141.816 96.548C142.564 94.916 143.618 93.454 144.978 92.162C146.338 90.802 147.868 89.612 149.568 88.592C151.268 87.504 153.036 86.688 154.872 86.144C156.776 85.6 158.646 85.328 160.482 85.328C164.562 85.328 167.962 86.144 170.682 87.776C173.402 89.408 175.442 91.89 176.802 95.222C178.162 98.554 178.842 102.668 178.842 107.564V140H166.194V108.38C166.194 105.66 165.82 103.416 165.072 101.648C164.392 99.88 163.304 98.588 161.808 97.772C160.38 96.888 158.578 96.446 156.402 96.446C154.702 96.446 153.07 96.752 151.506 97.364C150.01 97.908 148.718 98.724 147.63 99.812C146.542 100.832 145.692 102.022 145.08 103.382C144.468 104.742 144.162 106.238 144.162 107.87V140H131.514V108.278C131.514 105.694 131.14 103.552 130.392 101.852C129.644 100.084 128.556 98.758 127.128 97.874C125.7 96.922 123.966 96.446 121.926 96.446C120.226 96.446 118.628 96.752 117.132 97.364C115.636 97.908 114.344 98.69 113.256 99.71C112.168 100.73 111.318 101.92 110.706 103.28C110.094 104.64 109.788 106.136 109.788 107.768V140H97.14ZM217.352 141.02C211.98 141.02 207.186 139.83 202.97 137.45C198.754 135.002 195.422 131.67 192.974 127.454C190.526 123.238 189.302 118.444 189.302 113.072C189.302 107.7 190.526 102.906 192.974 98.69C195.422 94.474 198.754 91.176 202.97 88.796C207.186 86.348 211.98 85.124 217.352 85.124C222.656 85.124 227.416 86.348 231.632 88.796C235.848 91.176 239.146 94.474 241.526 98.69C243.974 102.906 245.198 107.7 245.198 113.072C245.198 118.444 243.974 123.238 241.526 127.454C239.146 131.67 235.848 135.002 231.632 137.45C227.416 139.83 222.656 141.02 217.352 141.02ZM217.352 129.902C220.276 129.902 222.86 129.154 225.104 127.658C227.416 126.162 229.218 124.156 230.51 121.64C231.87 119.124 232.516 116.268 232.448 113.072C232.516 109.808 231.87 106.918 230.51 104.402C229.218 101.886 227.416 99.914 225.104 98.486C222.86 96.99 220.276 96.242 217.352 96.242C214.428 96.242 211.776 96.99 209.396 98.486C207.084 99.914 205.282 101.92 203.99 104.504C202.698 107.02 202.052 109.876 202.052 113.072C202.052 116.268 202.698 119.124 203.99 121.64C205.282 124.156 207.084 126.162 209.396 127.658C211.776 129.154 214.428 129.902 217.352 129.902ZM256.42 140V86.246H268.66L268.864 97.262L266.518 98.486C267.198 96.038 268.524 93.828 270.496 91.856C272.468 89.816 274.814 88.184 277.534 86.96C280.254 85.736 283.042 85.124 285.898 85.124C289.978 85.124 293.378 85.94 296.098 87.572C298.886 89.204 300.96 91.652 302.32 94.916C303.748 98.18 304.462 102.26 304.462 107.156V140H291.916V108.074C291.916 105.354 291.542 103.11 290.794 101.342C290.046 99.506 288.89 98.18 287.326 97.364C285.762 96.48 283.858 96.072 281.614 96.14C279.778 96.14 278.078 96.446 276.514 97.058C275.018 97.602 273.692 98.418 272.536 99.506C271.448 100.526 270.564 101.716 269.884 103.076C269.272 104.436 268.966 105.932 268.966 107.564V140H262.744C261.52 140 260.364 140 259.276 140C258.256 140 257.304 140 256.42 140ZM343.158 141.02C337.786 141.02 332.992 139.83 328.776 137.45C324.56 135.002 321.228 131.67 318.78 127.454C316.332 123.238 315.108 118.444 315.108 113.072C315.108 107.7 316.332 102.906 318.78 98.69C321.228 94.474 324.56 91.176 328.776 88.796C332.992 86.348 337.786 85.124 343.158 85.124C348.462 85.124 353.222 86.348 357.438 88.796C361.654 91.176 364.952 94.474 367.332 98.69C369.78 102.906 371.004 107.7 371.004 113.072C371.004 118.444 369.78 123.238 367.332 127.454C364.952 131.67 361.654 135.002 357.438 137.45C353.222 139.83 348.462 141.02 343.158 141.02ZM343.158 129.902C346.082 129.902 348.666 129.154 350.91 127.658C353.222 126.162 355.024 124.156 356.316 121.64C357.676 119.124 358.322 116.268 358.254 113.072C358.322 109.808 357.676 106.918 356.316 104.402C355.024 101.886 353.222 99.914 350.91 98.486C348.666 96.99 346.082 96.242 343.158 96.242C340.234 96.242 337.582 96.99 335.202 98.486C332.89 99.914 331.088 101.92 329.796 104.504C328.504 107.02 327.858 109.876 327.858 113.072C327.858 116.268 328.504 119.124 329.796 121.64C331.088 124.156 332.89 126.162 335.202 127.658C337.582 129.154 340.234 129.902 343.158 129.902ZM380.187 116.846V104.81H411.705V116.846H380.187ZM443.028 141.02C439.152 141.02 435.786 140.17 432.93 138.47C430.074 136.702 427.898 134.22 426.402 131.024C424.906 127.76 424.158 123.884 424.158 119.396V86.246H436.704V116.744C436.704 119.6 437.146 122.048 438.03 124.088C438.914 126.06 440.206 127.59 441.906 128.678C443.606 129.766 445.646 130.31 448.026 130.31C449.794 130.31 451.392 130.038 452.82 129.494C454.316 128.882 455.608 128.066 456.696 127.046C457.784 125.958 458.634 124.7 459.246 123.272C459.858 121.776 460.164 120.178 460.164 118.478V86.246H472.71V140H460.47L460.266 128.78L462.51 127.556C461.694 130.14 460.3 132.452 458.328 134.492C456.424 136.464 454.146 138.062 451.494 139.286C448.842 140.442 446.02 141.02 443.028 141.02ZM488.842 140V86.246H501.388V140H488.842ZM494.962 74.822C492.446 74.822 490.474 74.21 489.046 72.986C487.686 71.694 487.006 69.892 487.006 67.58C487.006 65.404 487.72 63.636 489.148 62.276C490.576 60.916 492.514 60.236 494.962 60.236C497.546 60.236 499.518 60.882 500.878 62.174C502.306 63.398 503.02 65.2 503.02 67.58C503.02 69.688 502.306 71.422 500.878 72.782C499.45 74.142 497.478 74.822 494.962 74.822Z" fill="white"/>
</svg>
