<svg width="600" height="258" viewBox="0 0 600 258" fill="none" xmlns="http://www.w3.org/2000/svg">
<path d="M97.14 167V113.246H109.482L109.686 124.058L107.646 124.874C108.258 123.106 109.176 121.474 110.4 119.978C111.624 118.414 113.086 117.088 114.786 116C116.486 114.844 118.288 113.96 120.192 113.348C122.096 112.668 124.034 112.328 126.006 112.328C128.93 112.328 131.514 112.804 133.758 113.756C136.07 114.64 137.974 116.068 139.47 118.04C141.034 120.012 142.19 122.528 142.938 125.588L141 125.18L141.816 123.548C142.564 121.916 143.618 120.454 144.978 119.162C146.338 117.802 147.868 116.612 149.568 115.592C151.268 114.504 153.036 113.688 154.872 113.144C156.776 112.6 158.646 112.328 160.482 112.328C164.562 112.328 167.962 113.144 170.682 114.776C173.402 116.408 175.442 118.89 176.802 122.222C178.162 125.554 178.842 129.668 178.842 134.564V167H166.194V135.38C166.194 132.66 165.82 130.416 165.072 128.648C164.392 126.88 163.304 125.588 161.808 124.772C160.38 123.888 158.578 123.446 156.402 123.446C154.702 123.446 153.07 123.752 151.506 124.364C150.01 124.908 148.718 125.724 147.63 126.812C146.542 127.832 145.692 129.022 145.08 130.382C144.468 131.742 144.162 133.238 144.162 134.87V167H131.514V135.278C131.514 132.694 131.14 130.552 130.392 128.852C129.644 127.084 128.556 125.758 127.128 124.874C125.7 123.922 123.966 123.446 121.926 123.446C120.226 123.446 118.628 123.752 117.132 124.364C115.636 124.908 114.344 125.69 113.256 126.71C112.168 127.73 111.318 128.92 110.706 130.28C110.094 131.64 109.788 133.136 109.788 134.768V167H97.14ZM217.352 168.02C211.98 168.02 207.186 166.83 202.97 164.45C198.754 162.002 195.422 158.67 192.974 154.454C190.526 150.238 189.302 145.444 189.302 140.072C189.302 134.7 190.526 129.906 192.974 125.69C195.422 121.474 198.754 118.176 202.97 115.796C207.186 113.348 211.98 112.124 217.352 112.124C222.656 112.124 227.416 113.348 231.632 115.796C235.848 118.176 239.146 121.474 241.526 125.69C243.974 129.906 245.198 134.7 245.198 140.072C245.198 145.444 243.974 150.238 241.526 154.454C239.146 158.67 235.848 162.002 231.632 164.45C227.416 166.83 222.656 168.02 217.352 168.02ZM217.352 156.902C220.276 156.902 222.86 156.154 225.104 154.658C227.416 153.162 229.218 151.156 230.51 148.64C231.87 146.124 232.516 143.268 232.448 140.072C232.516 136.808 231.87 133.918 230.51 131.402C229.218 128.886 227.416 126.914 225.104 125.486C222.86 123.99 220.276 123.242 217.352 123.242C214.428 123.242 211.776 123.99 209.396 125.486C207.084 126.914 205.282 128.92 203.99 131.504C202.698 134.02 202.052 136.876 202.052 140.072C202.052 143.268 202.698 146.124 203.99 148.64C205.282 151.156 207.084 153.162 209.396 154.658C211.776 156.154 214.428 156.902 217.352 156.902ZM256.42 167V113.246H268.66L268.864 124.262L266.518 125.486C267.198 123.038 268.524 120.828 270.496 118.856C272.468 116.816 274.814 115.184 277.534 113.96C280.254 112.736 283.042 112.124 285.898 112.124C289.978 112.124 293.378 112.94 296.098 114.572C298.886 116.204 300.96 118.652 302.32 121.916C303.748 125.18 304.462 129.26 304.462 134.156V167H291.916V135.074C291.916 132.354 291.542 130.11 290.794 128.342C290.046 126.506 288.89 125.18 287.326 124.364C285.762 123.48 283.858 123.072 281.614 123.14C279.778 123.14 278.078 123.446 276.514 124.058C275.018 124.602 273.692 125.418 272.536 126.506C271.448 127.526 270.564 128.716 269.884 130.076C269.272 131.436 268.966 132.932 268.966 134.564V167H262.744C261.52 167 260.364 167 259.276 167C258.256 167 257.304 167 256.42 167ZM343.158 168.02C337.786 168.02 332.992 166.83 328.776 164.45C324.56 162.002 321.228 158.67 318.78 154.454C316.332 150.238 315.108 145.444 315.108 140.072C315.108 134.7 316.332 129.906 318.78 125.69C321.228 121.474 324.56 118.176 328.776 115.796C332.992 113.348 337.786 112.124 343.158 112.124C348.462 112.124 353.222 113.348 357.438 115.796C361.654 118.176 364.952 121.474 367.332 125.69C369.78 129.906 371.004 134.7 371.004 140.072C371.004 145.444 369.78 150.238 367.332 154.454C364.952 158.67 361.654 162.002 357.438 164.45C353.222 166.83 348.462 168.02 343.158 168.02ZM343.158 156.902C346.082 156.902 348.666 156.154 350.91 154.658C353.222 153.162 355.024 151.156 356.316 148.64C357.676 146.124 358.322 143.268 358.254 140.072C358.322 136.808 357.676 133.918 356.316 131.402C355.024 128.886 353.222 126.914 350.91 125.486C348.666 123.99 346.082 123.242 343.158 123.242C340.234 123.242 337.582 123.99 335.202 125.486C332.89 126.914 331.088 128.92 329.796 131.504C328.504 134.02 327.858 136.876 327.858 140.072C327.858 143.268 328.504 146.124 329.796 148.64C331.088 151.156 332.89 153.162 335.202 154.658C337.582 156.154 340.234 156.902 343.158 156.902ZM380.187 143.846V131.81H411.705V143.846H380.187ZM443.028 168.02C439.152 168.02 435.786 167.17 432.93 165.47C430.074 163.702 427.898 161.22 426.402 158.024C424.906 154.76 424.158 150.884 424.158 146.396V113.246H436.704V143.744C436.704 146.6 437.146 149.048 438.03 151.088C438.914 153.06 440.206 154.59 441.906 155.678C443.606 156.766 445.646 157.31 448.026 157.31C449.794 157.31 451.392 157.038 452.82 156.494C454.316 155.882 455.608 155.066 456.696 154.046C457.784 152.958 458.634 151.7 459.246 150.272C459.858 148.776 460.164 147.178 460.164 145.478V113.246H472.71V167H460.47L460.266 155.78L462.51 154.556C461.694 157.14 460.3 159.452 458.328 161.492C456.424 163.464 454.146 165.062 451.494 166.286C448.842 167.442 446.02 168.02 443.028 168.02ZM488.842 167V113.246H501.388V167H488.842ZM494.962 101.822C492.446 101.822 490.474 101.21 489.046 99.986C487.686 98.694 487.006 96.892 487.006 94.58C487.006 92.404 487.72 90.636 489.148 89.276C490.576 87.916 492.514 87.236 494.962 87.236C497.546 87.236 499.518 87.882 500.878 89.174C502.306 90.398 503.02 92.2 503.02 94.58C503.02 96.688 502.306 98.422 500.878 99.782C499.45 101.142 497.478 101.822 494.962 101.822Z" fill="white"/>
</svg>
